# xmcd
#
# Track frame offsets:
#	150
#	17003
#	30616
#	48353
#	73848
#	87827
#	109513
#	126913
#	148589
#	174799
#	195425
#	219519
#	254993
#	276405
#	291517
#
# Disc length: 4389
#
# Revision: 1
# Processed by: cddbd v1.5.1PL0 Copyright (c) Steve Scherf et al.
# Submitted via: dBpowerAMP V4.0
# Normalized: r0:DSETVAR1,TDELIM( - )
#
DISCID=e411230f
DTITLE=Various Artist - My favourites blues - Vol. 5
DYEAR=1900
DGENRE=Blues
TTITLE0=Badlands - The Maniac Bullfrgogs
TTITLE1=Rock Wiff - Horsepower
TTITLE2=Which One - Jeff Healey Band
TTITLE3=Baby he's your man - Toto
TTITLE4=Desire - Tony Galla
TTITLE5=Harley Davidson - Pecwec Bluesgang
TTITLE6=Kansas City - Recydywa
TTITLE7=In the scheme of Thines - Rob Tognoni
TTITLE8=Luisiana Blues - Foghat
TTITLE9=Don't let me be misunderstood - Popa Chubby
TTITLE10=Savage resurrection - Jay Gordon
TTITLE11=Hit so hard - Amor
TTITLE12=Back on your feet - Claz Yngstrom
TTITLE13=Easy way out - Jay Hooks
TTITLE14=Early in the morning - Homewreckers
EXTD=
EXTT0=
EXTT1=
EXTT2=
EXTT3=
EXTT4=
EXTT5=
EXTT6=
EXTT7=
EXTT8=
EXTT9=
EXTT10=
EXTT11=
EXTT12=
EXTT13=
EXTT14=
PLAYORDER=
